# xmcd
#
# Track frame offsets: 
#        150
#        16375
#        38095
#        60705
#        79765
#        99437
#        118742
#        138002
#        155472
#        179242
#        198590
#
# Disc length: 2933 seconds
#
# Revision: 2
# Processed by: cddbd v1.5.2PL0 Copyright (c) Steve Scherf et al.
# Submitted via: ExactAudioCopy v0.99pb5
#
DISCID=910b730b
DTITLE=Jakob Andersen - Best Belief
DYEAR=2005
DGENRE=Rock
TTITLE0=My broken heart
TTITLE1=Walk out on me
TTITLE2=Angel in my sleep
TTITLE3=For my lover
TTITLE4=Saviours gate
TTITLE5=Second best
TTITLE6=Please remember me
TTITLE7=The world is movin'
TTITLE8=I don't wanna talk about it now
TTITLE9=Here in your arms
TTITLE10=Feel like going home
EXTD=
EXTT0=
EXTT1=
EXTT2=
EXTT3=
EXTT4=
EXTT5=
EXTT6=
EXTT7=
EXTT8=
EXTT9=
EXTT10=
PLAYORDER=
